<svg width="27" height="27" viewBox="0 0 27 27" fill="none" xmlns="http://www.w3.org/2000/svg">
<path fill-rule="evenodd" clip-rule="evenodd" d="M5.86766 13.8354C5.86766 12.996 6.00698 12.1912 6.25593 11.4365L1.9007 8.11076C1.05186 9.83408 0.57373 11.7761 0.57373 13.8354C0.57373 15.8931 1.05145 17.8336 1.89888 19.5559L6.25169 16.2238C6.00516 15.4725 5.86766 14.6707 5.86766 13.8354Z" fill="#FBBC05"/>
<path fill-rule="evenodd" clip-rule="evenodd" d="M13.5145 6.19947C15.338 6.19947 16.985 6.84558 18.279 7.9028L22.0435 4.1436C19.7496 2.14649 16.8085 0.91301 13.5145 0.91301C8.4005 0.91301 4.00528 3.8375 1.90076 8.11076L6.25579 11.4365C7.2593 8.39041 10.1198 6.19947 13.5145 6.19947Z" fill="#EA4335"/>
<path fill-rule="evenodd" clip-rule="evenodd" d="M13.5145 21.4713C10.12 21.4713 7.2595 19.2803 6.256 16.2343L1.90076 19.5594C4.00528 23.8332 8.4005 26.7577 13.5145 26.7577C16.6708 26.7577 19.6843 25.6369 21.946 23.537L17.812 20.3412C16.6456 21.0759 15.1767 21.4713 13.5145 21.4713Z" fill="#34A853"/>
<path fill-rule="evenodd" clip-rule="evenodd" d="M25.8669 13.8354C25.8669 13.0717 25.7492 12.2494 25.5727 11.4859H13.5145V16.4786H20.4554C20.1084 18.1809 19.1638 19.4895 17.812 20.3412L21.946 23.537C24.3217 21.3322 25.8669 18.0475 25.8669 13.8354Z" fill="#4285F4"/>
</svg>
