<svg width="424" height="51" viewBox="0 0 424 51" fill="none" xmlns="http://www.w3.org/2000/svg">
<rect x="0.661377" y="1.17078" width="422.037" height="49.3292" rx="24.6646" fill="white" stroke="white"/>
<g clip-path="url(#clip0_215_957)">
<path fill-rule="evenodd" clip-rule="evenodd" d="M96.8677 25.8354C96.8677 24.996 97.007 24.1912 97.2559 23.4365L92.9007 20.1108C92.0519 21.8341 91.5737 23.7761 91.5737 25.8354C91.5737 27.8931 92.0515 29.8336 92.8989 31.5559L97.2517 28.2238C97.0052 27.4725 96.8677 26.6707 96.8677 25.8354Z" fill="#FBBC05"/>
<path fill-rule="evenodd" clip-rule="evenodd" d="M104.515 18.1995C106.338 18.1995 107.985 18.8456 109.279 19.9028L113.043 16.1436C110.75 14.1465 107.809 12.913 104.515 12.913C99.4005 12.913 95.0053 15.8375 92.9008 20.1108L97.2558 23.4365C98.2593 20.3904 101.12 18.1995 104.515 18.1995Z" fill="#EA4335"/>
<path fill-rule="evenodd" clip-rule="evenodd" d="M104.515 33.4713C101.12 33.4713 98.2595 31.2803 97.256 28.2343L92.9008 31.5594C95.0053 35.8332 99.4005 38.7577 104.515 38.7577C107.671 38.7577 110.684 37.6369 112.946 35.537L108.812 32.3412C107.646 33.0759 106.177 33.4713 104.515 33.4713Z" fill="#34A853"/>
<path fill-rule="evenodd" clip-rule="evenodd" d="M116.867 25.8354C116.867 25.0717 116.749 24.2494 116.573 23.4859H104.515V28.4786H111.455C111.108 30.1809 110.164 31.4895 108.812 32.3412L112.946 35.537C115.322 33.3322 116.867 30.0475 116.867 25.8354Z" fill="#4285F4"/>
</g>
<path d="M148.292 22.5528H146.53C146.426 22.0461 146.244 21.6011 145.984 21.2175C145.728 20.834 145.415 20.512 145.046 20.2516C144.682 19.9865 144.277 19.7876 143.832 19.655C143.387 19.5225 142.923 19.4562 142.44 19.4562C141.559 19.4562 140.761 19.6787 140.046 20.1238C139.336 20.5689 138.77 21.2246 138.349 22.0911C137.932 22.9576 137.724 24.0206 137.724 25.28C137.724 26.5395 137.932 27.6025 138.349 28.469C138.77 29.3354 139.336 29.9912 140.046 30.4363C140.761 30.8814 141.559 31.1039 142.44 31.1039C142.923 31.1039 143.387 31.0376 143.832 30.905C144.277 30.7725 144.682 30.576 145.046 30.3155C145.415 30.0504 145.728 29.7261 145.984 29.3425C146.244 28.9543 146.426 28.5092 146.53 28.0073H148.292C148.159 28.7507 147.918 29.4159 147.567 30.003C147.217 30.5902 146.781 31.0897 146.261 31.5016C145.74 31.9088 145.155 32.219 144.506 32.432C143.862 32.6451 143.173 32.7516 142.44 32.7516C141.199 32.7516 140.096 32.4486 139.13 31.8425C138.164 31.2365 137.404 30.3747 136.85 29.2573C136.296 28.1399 136.019 26.8141 136.019 25.28C136.019 23.7459 136.296 22.4202 136.85 21.3028C137.404 20.1853 138.164 19.3236 139.13 18.7175C140.096 18.1115 141.199 17.8084 142.44 17.8084C143.173 17.8084 143.862 17.915 144.506 18.128C145.155 18.3411 145.74 18.6536 146.261 19.0655C146.781 19.4727 147.217 19.9699 147.567 20.557C147.918 21.1394 148.159 21.8047 148.292 22.5528ZM154.935 32.78C153.95 32.78 153.086 32.5457 152.342 32.0769C151.604 31.6082 151.026 30.9524 150.609 30.1096C150.197 29.2668 149.991 28.2819 149.991 27.155C149.991 26.0187 150.197 25.0267 150.609 24.1792C151.026 23.3316 151.604 22.6735 152.342 22.2048C153.086 21.736 153.95 21.5016 154.935 21.5016C155.919 21.5016 156.781 21.736 157.52 22.2048C158.263 22.6735 158.841 23.3316 159.253 24.1792C159.669 25.0267 159.878 26.0187 159.878 27.155C159.878 28.2819 159.669 29.2668 159.253 30.1096C158.841 30.9524 158.263 31.6082 157.52 32.0769C156.781 32.5457 155.919 32.78 154.935 32.78ZM154.935 31.2744C155.683 31.2744 156.298 31.0826 156.781 30.6991C157.264 30.3155 157.622 29.8113 157.854 29.1863C158.086 28.5613 158.202 27.8842 158.202 27.155C158.202 26.4259 158.086 25.7464 157.854 25.1167C157.622 24.487 157.264 23.978 156.781 23.5897C156.298 23.2014 155.683 23.0073 154.935 23.0073C154.187 23.0073 153.571 23.2014 153.088 23.5897C152.605 23.978 152.248 24.487 152.016 25.1167C151.784 25.7464 151.668 26.4259 151.668 27.155C151.668 27.8842 151.784 28.5613 152.016 29.1863C152.248 29.8113 152.605 30.3155 153.088 30.6991C153.571 31.0826 154.187 31.2744 154.935 31.2744ZM163.705 25.9903V32.5528H162.028V21.6437H163.648V23.3482H163.79C164.045 22.7942 164.434 22.3492 164.955 22.013C165.475 21.6721 166.148 21.5016 166.972 21.5016C167.71 21.5016 168.357 21.6531 168.91 21.9562C169.464 22.2545 169.895 22.709 170.203 23.3198C170.511 23.9259 170.665 24.6929 170.665 25.6209V32.5528H168.989V25.7346C168.989 24.8776 168.766 24.21 168.321 23.7317C167.876 23.2488 167.265 23.0073 166.489 23.0073C165.954 23.0073 165.475 23.1233 165.054 23.3553C164.637 23.5873 164.308 23.9259 164.067 24.3709C163.825 24.816 163.705 25.3558 163.705 25.9903ZM178.064 21.6437V23.0641H172.411V21.6437H178.064ZM174.058 19.03H175.734V29.4278C175.734 29.9012 175.803 30.2564 175.94 30.4931C176.082 30.7251 176.262 30.8814 176.48 30.9619C176.703 31.0376 176.937 31.0755 177.183 31.0755C177.368 31.0755 177.519 31.066 177.638 31.0471C177.756 31.0234 177.851 31.0045 177.922 30.9903L178.263 32.4959C178.149 32.5386 177.991 32.5812 177.787 32.6238C177.583 32.6711 177.325 32.6948 177.013 32.6948C176.539 32.6948 176.075 32.593 175.621 32.3894C175.171 32.1858 174.797 31.8757 174.499 31.459C174.205 31.0423 174.058 30.5168 174.058 29.8823V19.03ZM180.177 32.5528V21.6437H181.853V32.5528H180.177ZM181.03 19.8255C180.703 19.8255 180.421 19.7142 180.184 19.4917C179.952 19.2691 179.836 19.0016 179.836 18.6891C179.836 18.3766 179.952 18.1091 180.184 17.8866C180.421 17.664 180.703 17.5528 181.03 17.5528C181.356 17.5528 181.636 17.664 181.868 17.8866C182.104 18.1091 182.223 18.3766 182.223 18.6891C182.223 19.0016 182.104 19.2691 181.868 19.4917C181.636 19.7142 181.356 19.8255 181.03 19.8255ZM186.191 25.9903V32.5528H184.515V21.6437H186.135V23.3482H186.277C186.532 22.7942 186.921 22.3492 187.441 22.013C187.962 21.6721 188.635 21.5016 189.459 21.5016C190.197 21.5016 190.843 21.6531 191.397 21.9562C191.951 22.2545 192.382 22.709 192.69 23.3198C192.998 23.9259 193.152 24.6929 193.152 25.6209V32.5528H191.476V25.7346C191.476 24.8776 191.253 24.21 190.808 23.7317C190.363 23.2488 189.752 23.0073 188.976 23.0073C188.441 23.0073 187.962 23.1233 187.541 23.3553C187.124 23.5873 186.795 23.9259 186.554 24.3709C186.312 24.816 186.191 25.3558 186.191 25.9903ZM202.682 28.0925V21.6437H204.358V32.5528H202.682V30.7062H202.568C202.312 31.2602 201.915 31.7313 201.375 32.1195C200.835 32.503 200.153 32.6948 199.329 32.6948C198.647 32.6948 198.041 32.5457 197.511 32.2474C196.981 31.9443 196.564 31.4898 196.261 30.8837C195.958 30.2729 195.807 29.5035 195.807 28.5755V21.6437H197.483V28.4619C197.483 29.2573 197.705 29.8918 198.15 30.3653C198.6 30.8387 199.173 31.0755 199.869 31.0755C200.286 31.0755 200.709 30.969 201.14 30.7559C201.576 30.5428 201.941 30.2161 202.234 29.7758C202.532 29.3354 202.682 28.7744 202.682 28.0925ZM211.594 32.78C210.542 32.78 209.636 32.548 208.873 32.084C208.116 31.6153 207.531 30.9619 207.119 30.1238C206.712 29.281 206.508 28.3009 206.508 27.1834C206.508 26.066 206.712 25.0812 207.119 24.2289C207.531 23.3719 208.104 22.7043 208.838 22.2261C209.576 21.7431 210.438 21.5016 211.423 21.5016C211.991 21.5016 212.552 21.5963 213.106 21.7857C213.66 21.9751 214.165 22.2829 214.619 22.709C215.074 23.1304 215.436 23.6891 215.706 24.3852C215.976 25.0812 216.111 25.9382 216.111 26.9562V27.6664H207.701V26.2175H214.406C214.406 25.602 214.283 25.0528 214.037 24.5698C213.795 24.0869 213.45 23.7057 213 23.4263C212.555 23.147 212.029 23.0073 211.423 23.0073C210.755 23.0073 210.178 23.173 209.69 23.5045C209.207 23.8312 208.835 24.2573 208.575 24.7829C208.315 25.3084 208.184 25.8719 208.184 26.4732V27.4391C208.184 28.263 208.326 28.9614 208.611 29.5343C208.899 30.1025 209.299 30.5357 209.811 30.834C210.322 31.1276 210.916 31.2744 211.594 31.2744C212.034 31.2744 212.432 31.2128 212.787 31.0897C213.147 30.9619 213.457 30.7725 213.717 30.5215C213.978 30.2658 214.179 29.9486 214.321 29.5698L215.94 30.0244C215.77 30.5736 215.483 31.0566 215.081 31.4732C214.678 31.8852 214.181 32.2071 213.589 32.4391C212.997 32.6664 212.332 32.78 211.594 32.78ZM225.941 32.5528L222.617 21.6437H224.378L226.736 29.9959H226.85L229.179 21.6437H230.969L233.27 29.9675H233.384L235.742 21.6437H237.503L234.179 32.5528H232.532L230.145 24.1721H229.975L227.589 32.5528H225.941ZM239.311 32.5528V21.6437H240.987V32.5528H239.311ZM240.164 19.8255C239.837 19.8255 239.555 19.7142 239.318 19.4917C239.086 19.2691 238.97 19.0016 238.97 18.6891C238.97 18.3766 239.086 18.1091 239.318 17.8866C239.555 17.664 239.837 17.5528 240.164 17.5528C240.49 17.5528 240.77 17.664 241.002 17.8866C241.238 18.1091 241.357 18.3766 241.357 18.6891C241.357 19.0016 241.238 19.2691 241.002 19.4917C240.77 19.7142 240.49 19.8255 240.164 19.8255ZM248.394 21.6437V23.0641H242.74V21.6437H248.394ZM244.388 19.03H246.064V29.4278C246.064 29.9012 246.133 30.2564 246.27 30.4931C246.412 30.7251 246.592 30.8814 246.81 30.9619C247.032 31.0376 247.267 31.0755 247.513 31.0755C247.698 31.0755 247.849 31.066 247.968 31.0471C248.086 31.0234 248.181 31.0045 248.252 30.9903L248.593 32.4959C248.479 32.5386 248.32 32.5812 248.117 32.6238C247.913 32.6711 247.655 32.6948 247.343 32.6948C246.869 32.6948 246.405 32.593 245.951 32.3894C245.501 32.1858 245.127 31.8757 244.828 31.459C244.535 31.0423 244.388 30.5168 244.388 29.8823V19.03ZM252.418 25.9903V32.5528H250.741V18.0073H252.418V23.3482H252.56C252.815 22.7848 253.199 22.3373 253.71 22.0059C254.226 21.6697 254.913 21.5016 255.77 21.5016C256.513 21.5016 257.164 21.6508 257.723 21.9491C258.282 22.2426 258.715 22.6948 259.023 23.3056C259.335 23.9117 259.491 24.6834 259.491 25.6209V32.5528H257.815V25.7346C257.815 24.8681 257.59 24.1981 257.141 23.7246C256.695 23.2464 256.078 23.0073 255.287 23.0073C254.738 23.0073 254.245 23.1233 253.81 23.3553C253.379 23.5873 253.038 23.9259 252.787 24.3709C252.541 24.816 252.418 25.3558 252.418 25.9903ZM277.537 22.5528C277.381 22.0745 277.175 21.646 276.919 21.2673C276.668 20.8837 276.368 20.557 276.017 20.2871C275.672 20.0173 275.279 19.8113 274.838 19.6692C274.398 19.5272 273.915 19.4562 273.389 19.4562C272.528 19.4562 271.744 19.6787 271.039 20.1238C270.333 20.5689 269.772 21.2246 269.355 22.0911C268.939 22.9576 268.73 24.0206 268.73 25.28C268.73 26.5395 268.941 27.6025 269.363 28.469C269.784 29.3354 270.354 29.9912 271.074 30.4363C271.794 30.8814 272.604 31.1039 273.503 31.1039C274.336 31.1039 275.07 30.9263 275.705 30.5712C276.344 30.2114 276.841 29.7048 277.196 29.0513C277.556 28.3932 277.736 27.6191 277.736 26.7289L278.276 26.8425H273.901V25.28H279.441V26.8425C279.441 28.0405 279.185 29.0821 278.674 29.9675C278.167 30.853 277.466 31.5395 276.571 32.0272C275.681 32.5102 274.658 32.7516 273.503 32.7516C272.215 32.7516 271.084 32.4486 270.108 31.8425C269.138 31.2365 268.38 30.3747 267.836 29.2573C267.296 28.1399 267.026 26.8141 267.026 25.28C267.026 24.1295 267.18 23.0949 267.488 22.1763C267.8 21.253 268.24 20.4671 268.809 19.8184C269.377 19.1697 270.049 18.6726 270.826 18.3269C271.602 17.9813 272.457 17.8084 273.389 17.8084C274.157 17.8084 274.871 17.9244 275.534 18.1565C276.202 18.3837 276.796 18.7081 277.317 19.1295C277.843 19.5461 278.281 20.0457 278.631 20.628C278.981 21.2057 279.223 21.8473 279.355 22.5528H277.537ZM286.254 32.78C285.269 32.78 284.405 32.5457 283.662 32.0769C282.923 31.6082 282.345 30.9524 281.929 30.1096C281.517 29.2668 281.311 28.2819 281.311 27.155C281.311 26.0187 281.517 25.0267 281.929 24.1792C282.345 23.3316 282.923 22.6735 283.662 22.2048C284.405 21.736 285.269 21.5016 286.254 21.5016C287.239 21.5016 288.1 21.736 288.839 22.2048C289.582 22.6735 290.16 23.3316 290.572 24.1792C290.989 25.0267 291.197 26.0187 291.197 27.155C291.197 28.2819 290.989 29.2668 290.572 30.1096C290.16 30.9524 289.582 31.6082 288.839 32.0769C288.1 32.5457 287.239 32.78 286.254 32.78ZM286.254 31.2744C287.002 31.2744 287.618 31.0826 288.1 30.6991C288.583 30.3155 288.941 29.8113 289.173 29.1863C289.405 28.5613 289.521 27.8842 289.521 27.155C289.521 26.4259 289.405 25.7464 289.173 25.1167C288.941 24.487 288.583 23.978 288.1 23.5897C287.618 23.2014 287.002 23.0073 286.254 23.0073C285.506 23.0073 284.89 23.2014 284.407 23.5897C283.924 23.978 283.567 24.487 283.335 25.1167C283.103 25.7464 282.987 26.4259 282.987 27.155C282.987 27.8842 283.103 28.5613 283.335 29.1863C283.567 29.8113 283.924 30.3155 284.407 30.6991C284.89 31.0826 285.506 31.2744 286.254 31.2744ZM297.779 32.78C296.795 32.78 295.931 32.5457 295.187 32.0769C294.448 31.6082 293.871 30.9524 293.454 30.1096C293.042 29.2668 292.836 28.2819 292.836 27.155C292.836 26.0187 293.042 25.0267 293.454 24.1792C293.871 23.3316 294.448 22.6735 295.187 22.2048C295.931 21.736 296.795 21.5016 297.779 21.5016C298.764 21.5016 299.626 21.736 300.365 22.2048C301.108 22.6735 301.686 23.3316 302.098 24.1792C302.514 25.0267 302.723 26.0187 302.723 27.155C302.723 28.2819 302.514 29.2668 302.098 30.1096C301.686 30.9524 301.108 31.6082 300.365 32.0769C299.626 32.5457 298.764 32.78 297.779 32.78ZM297.779 31.2744C298.528 31.2744 299.143 31.0826 299.626 30.6991C300.109 30.3155 300.466 29.8113 300.698 29.1863C300.931 28.5613 301.047 27.8842 301.047 27.155C301.047 26.4259 300.931 25.7464 300.698 25.1167C300.466 24.487 300.109 23.978 299.626 23.5897C299.143 23.2014 298.528 23.0073 297.779 23.0073C297.031 23.0073 296.416 23.2014 295.933 23.5897C295.45 23.978 295.092 24.487 294.86 25.1167C294.628 25.7464 294.512 26.4259 294.512 27.155C294.512 27.8842 294.628 28.5613 294.86 29.1863C295.092 29.8113 295.45 30.3155 295.933 30.6991C296.416 31.0826 297.031 31.2744 297.779 31.2744ZM309.277 36.8709C308.467 36.8709 307.771 36.7668 307.189 36.5584C306.606 36.3548 306.121 36.085 305.733 35.7488C305.349 35.4173 305.044 35.0622 304.816 34.6834L306.152 33.7459C306.303 33.9448 306.495 34.1721 306.727 34.4278C306.959 34.6882 307.276 34.9131 307.679 35.1025C308.086 35.2966 308.618 35.3937 309.277 35.3937C310.157 35.3937 310.884 35.1806 311.457 34.7545C312.03 34.3283 312.316 33.6607 312.316 32.7516V30.5357H312.174C312.051 30.7346 311.876 30.9808 311.649 31.2744C311.426 31.5632 311.104 31.8212 310.683 32.0485C310.266 32.271 309.703 32.3823 308.993 32.3823C308.112 32.3823 307.321 32.174 306.62 31.7573C305.924 31.3406 305.373 30.7346 304.966 29.9391C304.563 29.1437 304.362 28.1778 304.362 27.0414C304.362 25.924 304.558 24.951 304.951 24.1224C305.344 23.289 305.891 22.6451 306.592 22.1905C307.293 21.7313 308.102 21.5016 309.021 21.5016C309.731 21.5016 310.295 21.62 310.711 21.8567C311.133 22.0887 311.455 22.3539 311.677 22.6522C311.904 22.9458 312.08 23.1872 312.203 23.3766H312.373V21.6437H313.993V32.8653C313.993 33.8028 313.779 34.5651 313.353 35.1522C312.932 35.7441 312.364 36.1773 311.649 36.4519C310.939 36.7313 310.148 36.8709 309.277 36.8709ZM309.22 30.8766C309.892 30.8766 310.46 30.7227 310.924 30.415C311.388 30.1072 311.741 29.6645 311.983 29.0869C312.224 28.5092 312.345 27.8179 312.345 27.013C312.345 26.227 312.226 25.5334 311.99 24.932C311.753 24.3307 311.403 23.8596 310.939 23.5187C310.475 23.1778 309.902 23.0073 309.22 23.0073C308.51 23.0073 307.918 23.1872 307.444 23.5471C306.976 23.9069 306.623 24.3899 306.386 24.9959C306.154 25.602 306.038 26.2744 306.038 27.013C306.038 27.7706 306.156 28.4405 306.393 29.0229C306.635 29.6006 306.99 30.0551 307.458 30.3866C307.932 30.7133 308.519 30.8766 309.22 30.8766ZM318.329 18.0073V32.5528H316.653V18.0073H318.329ZM325.565 32.78C324.514 32.78 323.607 32.548 322.845 32.084C322.087 31.6153 321.502 30.9619 321.09 30.1238C320.683 29.281 320.479 28.3009 320.479 27.1834C320.479 26.066 320.683 25.0812 321.09 24.2289C321.502 23.3719 322.075 22.7043 322.809 22.2261C323.548 21.7431 324.409 21.5016 325.394 21.5016C325.962 21.5016 326.524 21.5963 327.077 21.7857C327.631 21.9751 328.136 22.2829 328.59 22.709C329.045 23.1304 329.407 23.6891 329.677 24.3852C329.947 25.0812 330.082 25.9382 330.082 26.9562V27.6664H321.673V26.2175H328.377C328.377 25.602 328.254 25.0528 328.008 24.5698C327.766 24.0869 327.421 23.7057 326.971 23.4263C326.526 23.147 326 23.0073 325.394 23.0073C324.727 23.0073 324.149 23.173 323.661 23.5045C323.178 23.8312 322.807 24.2573 322.546 24.7829C322.286 25.3084 322.156 25.8719 322.156 26.4732V27.4391C322.156 28.263 322.298 28.9614 322.582 29.5343C322.871 30.1025 323.271 30.5357 323.782 30.834C324.293 31.1276 324.888 31.2744 325.565 31.2744C326.005 31.2744 326.403 31.2128 326.758 31.0897C327.118 30.9619 327.428 30.7725 327.688 30.5215C327.949 30.2658 328.15 29.9486 328.292 29.5698L329.911 30.0244C329.741 30.5736 329.454 31.0566 329.052 31.4732C328.649 31.8852 328.152 32.2071 327.56 32.4391C326.969 32.6664 326.303 32.78 325.565 32.78Z" fill="black"/>
<defs>
<clipPath id="clip0_215_957">
<rect width="25.8447" height="25.8447" fill="white" transform="translate(91.298 12.913)"/>
</clipPath>
</defs>
</svg>
